<svg width="157" height="28" viewBox="0 0 157 28" fill="none" xmlns="http://www.w3.org/2000/svg">
<path fill-rule="evenodd" clip-rule="evenodd" d="M48.8023 13.927C48.8023 21.406 54.6109 27.2007 62.0744 27.2007C64.1846 27.2007 65.9949 26.7851 68.2273 25.7183V19.8788C66.2615 21.8665 64.5289 22.6638 62.3076 22.6638C57.3653 22.6638 53.8557 19.0365 53.8557 13.8933C53.8557 9.00829 57.4764 5.15645 62.0744 5.15645C64.4178 5.15645 66.1837 5.99869 68.2273 8.02007V2.18054C66.0727 1.08002 64.3067 0.619593 62.1965 0.619593C54.7664 0.619593 48.8023 6.53773 48.8023 13.927ZM36.2189 7.75055C36.2189 9.12059 37.0852 9.85053 40.0284 10.9511C45.6037 13.0173 47.2586 14.8478 47.2586 18.8906C47.2586 23.8092 43.6824 27.2456 38.5846 27.2456C34.8529 27.2456 32.1318 25.7632 29.8772 22.4055L33.0425 19.3173C34.1753 21.5296 36.0523 22.7087 38.3957 22.7087C40.5837 22.7087 42.2052 21.1814 42.2052 19.1264C42.2052 18.0595 41.7166 17.1387 40.7392 16.4986C40.2505 16.1954 39.2731 15.735 37.3517 15.05C32.7426 13.3767 31.1655 11.5799 31.1655 8.07621C31.1655 3.90994 34.564 0.788042 39.0066 0.788042C41.7609 0.788042 44.2932 1.74258 46.4034 3.60673L43.8378 7.00938C42.5606 5.56073 41.35 4.95432 39.884 4.95432C37.7738 4.95432 36.23 6.16714 36.23 7.77301L36.2189 7.75055ZM23.1246 26.6279H28.0336V1.19232H23.1246V26.6279ZM13.0956 20.2943C11.5518 21.698 9.55271 22.3157 6.37631 22.3157H5.05465V5.49335H6.37631C9.5416 5.49335 11.4741 6.06607 13.0956 7.54841C14.7949 9.07567 15.8167 11.4452 15.8167 13.882C15.8167 16.3189 14.7949 18.767 13.0956 20.2943ZM7.3536 1.19232H0.156738V26.6279H7.32032C11.1298 26.6279 13.8842 25.7183 16.2942 23.6969C19.1597 21.2938 20.8589 17.6777 20.8589 13.9382C20.8589 6.43666 15.3168 1.20354 7.3536 1.20354V1.19232ZM100.424 1.19232L107.133 18.2729L113.93 1.19232H119.25L108.388 27.2793H105.744L95.0712 1.19232H100.436H100.424ZM121.471 26.6279H135.387V22.3269H126.38V15.4655H135.065V11.1532H126.38V5.50458H135.387V1.19232H121.471V26.6279ZM143.528 12.905H144.961C148.093 12.905 149.759 11.5238 149.759 8.9746C149.759 6.42542 148.093 5.20137 145.038 5.20137H143.528V12.905ZM145.905 1.19232C151.558 1.19232 154.801 3.94363 154.801 8.70508C154.801 12.6018 152.768 15.151 149.07 15.9146L156.989 26.6279H150.958L144.172 16.4088H143.528V26.6279H138.63V1.19232H145.905Z" fill="white"/>
<path fill-rule="evenodd" clip-rule="evenodd" d="M94.4937 21.2825C98.4809 14.9826 96.6595 6.62756 90.4288 2.59605C84.1982 -1.43547 75.924 0.406228 71.9479 6.70617C67.9719 13.0061 69.7822 21.3724 76.0128 25.3926C82.2434 29.4242 90.5065 27.5825 94.4937 21.2825Z" fill="white"/>
</svg>
